<?xml version="1.0" encoding="utf-8"?>
<!-- Generator: Adobe Illustrator 26.3.1, SVG Export Plug-In . SVG Version: 6.00 Build 0)  -->
<svg version="1.1" id="Layer_1" xmlns="http://www.w3.org/2000/svg" xmlns:xlink="http://www.w3.org/1999/xlink" x="0px" y="0px"
	 viewBox="0 0 1200 1200" style="enable-background:new 0 0 1200 1200;" xml:space="preserve">
<style type="text/css">
	.st0{fill:#333333;}
	.st1{fill:#ECECEA;}
	.st2{fill:#EC313A;}
	.st3{fill:none;}
</style>
<g>
	<g>
		<path class="st0" d="M201.38,504.91c39.56-67.76,117.54-106.03,195.4-94.74c78.51,11.38,143.45,71.77,160.84,149.07
			c9.23,41.04,4.91,84.56-13.32,122.57c-17.02,35.49-44.7,65.37-78.96,84.79c-68.42,38.79-155.58,31.73-216.9-17.53
			c-63.3-50.85-89.61-141-59.96-217.27C192.08,522.52,196.44,513.56,201.38,504.91c0.54-0.94,0.34-2.3,0.87-3.23
			c-38.1,66.73-35.18,151.65,10.46,214.14c49.61,67.92,140.31,96.08,219.68,68.51C506,758.76,557.3,689.51,562.74,612.12
			c5.88-83.52-44.42-163.12-122.31-193.8c-77.03-30.34-167.75-6.77-220.19,57.32c-6.7,8.19-12.66,16.91-18,26.05
			C201.7,502.62,201.91,503.99,201.38,504.91z"/>
	</g>
	<g>
		<path class="st1" d="M708.76,521.32c5.26-1.06,10.57-1.93,15.78-3.22c25.41-6.26,47.95-18.59,68.32-34.52
			c15.33-11.99,29.47-25.5,44.12-38.36c0.87-0.76,1.57-1.71,2.18-3c-64.52,52.87-139.93,67.58-220.89,63.2
			c0.81-0.31,1.6-0.81,2.45-0.92c38.71-5.12,76.11-15.47,112.85-28.34c35.08-12.29,68.63-27.74,100.38-47.3
			c11.3-6.96,17.71-14.46,16.13-28.33c-1.07-9.45-0.21-19.11-0.21-29.42c18.03,3.94,35.24,7.69,52.46,11.45
			c0.01,0.39,0.02,0.78,0.03,1.16c-4.51,0.61-9.01,1.26-13.53,1.81c-8.95,1.09-17.89,2.23-26.86,3.11c-3.41,0.34-4.88,1.72-5.1,5.2
			c-0.43,6.93-1.1,13.85-1.92,20.75c-0.36,3.05,0.78,4.86,3.12,6.67c26.81,20.73,56.58,36.09,88.54,46.79
			c39.2,13.12,78.82,24.99,118.26,37.4c0.54,0.17,1.07,0.38,1.6,0.57c0.06,0.46,0.11,0.93,0.17,1.39c-4.3,0.49-8.67,1.76-12.87,1.34
			c-67.25-6.74-129.03-29.21-186.07-65.17c-4.45-2.81-8.88-5.66-13.61-8.03c38.69,39.67,79.28,76.31,137.71,86.03
			c-1.39,0.47-2.19,0.91-3.03,1c-24.25,2.65-48.61,5.21-72.87,1.4c-13.94-2.19-27.59-6.27-41.28-9.83c-1.6-0.42-3.39-2.71-3.87-4.47
			c-6.62-24.22-13.03-48.51-19.49-72.77c-0.22-0.83-0.51-1.64-1.72-2.62c-1.7,5.95-3.51,11.87-5.09,17.85
			c-5.09,19.28-10.01,38.61-15.27,57.84c-0.5,1.81-2.72,3.79-4.58,4.48c-25.19,9.37-51.35,12.3-78.03,11
			c-11.8-0.58-23.57-1.87-35.35-2.87c-0.81-0.07-1.6-0.37-2.4-0.56C708.79,521.8,708.78,521.56,708.76,521.32z"/>
		<path class="st1" d="M769.74,633.21c3.29-0.89,6.52-2.14,9.87-2.61c30.87-4.37,61.9-4.48,92.95-3.03c11.5,0.54,22.96,1.94,34.44,3
			c1.46,0.13,2.88,0.67,4.34,0.84c4.35,0.5,5.82,2.91,5.81,7.21c-0.06,19.37,0.18,38.74,0.08,58.11c-0.01,1.69-1.32,3.97-2.74,4.96
			c-8.29,5.76-17.6,7.47-27.46,5.65c-2.37-0.44-4.67-1.79-6.75-3.11c-7.64-4.87-15.56-5.71-24.15-2.72
			c-5.98,2.08-12.11,3.78-18.28,5.19c-7.36,1.68-14.39,0.15-20.97-3.45c-7.45-4.07-15.12-7.37-23.77-7.87
			c-8.24-0.48-15.86,1.2-22.75,5.84c-0.68,0.46-1.45,0.8-2.95,1.62c0.85-20.81,1.67-40.92,2.49-60.92c6.27-1.21,6.4-1.21,7.3,4.48
			c1.78,11.34,4.77,22.25,11.09,32c11.47,17.67,28.99,20.88,46.02,8.4c12.22-8.95,19.25-21.78,25.87-34.9
			c0.48-0.95,1.04-1.87,2.45-2.56c0,5.53-0.18,11.07,0.05,16.59c0.24,5.73,0.36,11.55,1.48,17.14c1.3,6.47,5.66,11.04,11.9,13.3
			c8.72,3.16,17.78,4.53,27.03,3.45c2.51-0.29,5.03-1.56,7.24-2.89c1.01-0.61,1.92-2.62,1.66-3.69c-0.21-0.86-2.28-1.79-3.51-1.77
			c-4.12,0.08-8.24,0.54-12.36,0.92c-3.38,0.32-6.76,0.72-10.13,1.13c-3.27,0.39-4.71-0.82-4.14-4.26
			c2.14-12.72,6.26-23.83,19.48-29.55c7.2-3.12,10.25-10.32,12.84-17.37c0.65-1.78,1.07-3.66,1.77-6.09
			c-24.44,5.29-48.9,5.59-73.29,5.5c-24.36-0.09-48.87,0.08-72.7-5.97C769.87,634.93,769.81,634.07,769.74,633.21z"/>
		<path class="st1" d="M636.58,689.19c13.4-5.28,24.98-1,37.21,3.52c-1.14-5.79-2.18-10.94-3.17-16.09
			c-6.56-33.98-9.8-68.16-5.89-102.74c1.71-15.18,5.02-30,10.31-44.35c0.5-1.36,1.12-2.68,1.89-4.53
			c53.72,19.07,107.03,20.18,159.84-3.03c0.18,0.45,0.36,0.9,0.54,1.35c-7.17,3.89-14.15,8.2-21.55,11.58
			c-24.88,11.37-51.21,14.33-78.02,10.85c-18.96-2.46-37.65-6.93-57.49-10.69c-1.33,4.35-3.33,9.85-4.67,15.51
			c-4.93,20.78-5.24,41.89-3.79,63.04c2.5,36.4,9.91,71.96,18.91,107.23c0.07,0.26-0.02,0.57-0.1,2.35
			c-17.26-24.78-39.25-30.82-66.99-18.27c16.38-54.77,23.01-109.77,26.81-165.41c2.01,4.72,0.94,53.31-1.08,74.88
			C647.02,639.31,643.93,664.03,636.58,689.19z"/>
		<path class="st1" d="M1061.58,704.37c-34.85-10.17-43.46-7.8-67.18,18.6c0.39-2.15,0.54-3.31,0.82-4.44
			c10.43-41.81,19.04-83.92,19.02-127.26c0-17.64-1.97-35.12-7.73-51.96c-0.61-1.77-1.37-3.49-2.07-5.24
			c-10.85,2.76-21.19,5.78-31.71,7.99c-31.42,6.59-62.83,7.89-93.54-3.34c-9.36-3.42-18.05-8.67-27.02-13.14
			c-1.06-0.53-1.91-1.48-2.53-2.76c7.44,2.62,14.81,5.49,22.34,7.83c32.3,10.01,65.11,11.34,98.16,4.71
			c11.68-2.34,23.16-5.77,34.59-9.19c3.39-1.01,4.33-0.16,5.38,2.71c10.09,27.81,13.13,56.61,12.01,85.95
			c-0.94,24.73-4.42,49.14-9.79,73.29c-0.28,1.25-0.31,2.56-0.52,4.46c11.98-4.36,23.53-8.61,36.75-3.51
			c-13.92-50.16-14.61-100.65-14.5-151.26C1038.73,593.86,1045.01,649.63,1061.58,704.37z"/>
		<path class="st1" d="M982.54,604.55c-0.58,4.57-1.03,8.29-1.51,12.01c-2.79,21.52-6.89,42.91-5.89,64.79
			c0.08,1.84-1.63,3.77-2.52,5.66c-0.58,1.24-1.58,2.44-1.69,3.71c-0.26,3.08-0.19,6.2-0.07,9.3c0.09,2.49-0.98,3.89-3.35,3.17
			c-1.24-0.38-2.71-1.83-3.02-3.06c-0.65-2.64,0.37-6.5-1.12-7.89c-1.57-1.45-5.33-0.33-8.04-0.81c-3.9-0.69-7.7-1.93-11.59-2.72
			c-3.63-0.75-4.7,1.19-4.4,4.53c0.18,2.05-0.02,4.14,0.04,6.2c0.07,2.33-0.25,3.98-3.3,3.94c-2.84-0.04-3.06-1.61-3.02-3.73
			c0.05-2.22-0.04-4.44,0.02-6.65c0.07-2.69,0.14-5.07-2.85-6.77c-1.19-0.68-1.7-3.33-1.76-5.1c-0.2-6.5-0.13-13.01-0.06-19.51
			c0.05-4.91,1.47-6.38,6.35-6.42c10.35-0.07,20.7-0.24,31.04,0.08c4.55,0.14,5.7-1.66,5.24-5.69c-0.61-5.43-1.77-10.92-1.41-16.3
			c0.43-6.53,1.77-13.09,3.55-19.4C974.32,609.8,977.69,606.88,982.54,604.55z"/>
		<path class="st1" d="M745.82,688.89c-4.98,0.49-9.33-1.3-13.61,2.09c-1.69,1.34-5.12,0.66-7.75,0.59
			c-2.61-0.07-3.87,0.78-3.64,3.55c0.15,1.76,0.37,3.65-0.11,5.28c-0.34,1.14-1.94,2.83-2.74,2.7c-1.24-0.19-2.95-1.54-3.25-2.71
			c-0.53-2.08-0.17-4.39-0.16-6.61c0.01-2.91,0.5-5.82-2.95-7.64c-1-0.53-1.52-2.88-1.45-4.36c1.13-23.96-3.65-47.34-6.68-70.9
			c-0.17-1.32-0.29-2.64-0.38-3.97c-0.03-0.42,0.12-0.85,0.44-2.82c2.98,3.05,5.7,5.16,7.56,7.86c4.18,6.1,4.91,13.25,4.69,20.39
			c-0.17,5.59-1.01,11.16-1.56,16.75c-0.53,5.42,0.22,6.28,5.49,6.29c10.34,0.01,20.68-0.03,31.02,0.02c4.85,0.02,6.05,1.2,6.1,6.02
			c0.07,6.8,0.03,13.59-0.02,20.39c-0.01,1.16,0.04,2.98-0.61,3.37c-6.1,3.68-3.49,9.6-3.89,14.67c-0.18,2.32-0.67,3.58-3.28,3.52
			c-2.17-0.05-3.3-0.68-3.23-3.05C745.9,696.79,745.82,693.26,745.82,688.89z"/>
		<path class="st1" d="M790.43,643.88c-0.67,17.77,7.17,31.23,18.59,43.27c-11.86-0.72-27.32-25.58-27.35-44.18
			C784.54,643.26,787.36,643.55,790.43,643.88z"/>
	</g>
	<g>
		<path class="st0" d="M164.76,489.37c47.9-82.2,142.74-128.56,237.09-114.64c95.51,14.1,174.22,87.98,194.63,182.25
			c4.87,22.5,6.42,45.7,4.55,68.65c-1.01,12.42-2.73,25.15-6.1,37.17c0.86-3.06-0.06-0.05-0.24,0.46c-0.61,1.72-1.11,3.49-1.69,5.22
			c-0.95,2.83-1.97,5.63-3.03,8.42c-2.32,6.07-4.9,12.04-7.71,17.9c-20.68,43.02-54.34,79.2-95.93,102.65
			c-83.74,47.23-190.41,37.76-264.56-23.44c-35.94-29.67-62.4-70.04-75.47-114.76c-6.44-22.05-9.64-45.03-9.44-68
			c0.1-11.3,1.02-22.59,2.76-33.75c1.06-6.79,2.25-13.68,4.11-20.3c-0.9,3.2,1.01-2.87,1.36-3.94c1.31-4,2.74-7.96,4.27-11.87
			C153.68,510.34,158.87,499.67,164.76,489.37c2.15-3.76,1.37-9.19,3.5-12.91c-22.94,40.09-35.85,88.56-34.86,134.81
			c1.04,48.46,17.35,96.15,46.26,135.06c60.44,81.35,169.84,114.58,265.37,81.15c46.58-16.3,87.29-47.34,115.29-87.98
			c26.46-38.39,42.09-86.45,44.63-132.99c5.5-100.73-56.28-195.86-150.53-231.84c-93.17-35.57-202.11-6.47-264.98,71
			c-7.87,9.69-14.9,20.01-21.18,30.79C166.08,480.2,166.92,485.68,164.76,489.37z"/>
	</g>
	<g>
		<g>
			<path class="st0" d="M445.11,574.83c-4.86,14.68-1.94,20.95,4.1,22.35c10.37,2.27,30.34-10.04,38.11-19.33
				c2.92-4.1,7.88-2.05,3.45,2.7c-9.61,11.34-27.75,22.78-43.62,21.05c-13.06-1.19-17.6-17.28-11.66-28.94
				C440.68,567.81,446.62,570.08,445.11,574.83z"/>
			<path class="st0" d="M487.32,600.2c-3.46-1.73-4.32-6.48-3.78-10.9c2.05-17.71,19.97-31.74,38.01-29.15
				c5.51,0.76,10.58,3.24,13.06,8.42c2.27,4.86-3.89,6.05-5.94,0.86c-2.05-3.78-5.18-5.61-8.64-5.94
				c-8.85-0.86-19.22,9.29-23.21,19.11c-0.86,1.94-3.02,7.67-1.51,9.72c1.73,2.59,19.87-17.49,22.03-19.65
				c5.18-4.86,11.12-2.59,9.61,2.16c-4.86,14.68-1.94,20.95,4.1,22.35c10.36,2.27,30.34-10.04,38.11-19.33
				c2.91-4.1,7.88-2.05,3.45,2.7c-9.61,11.34-27.75,22.78-43.62,21.05c-12.96-1.19-17.38-12.42-11.34-24.19
				C513.02,581.2,498.98,606.25,487.32,600.2z"/>
		</g>
		<g>
			<path class="st0" d="M459.65,542.24l-13.78,16.15c-0.61,0.72-1.51,1.14-2.46,1.14h-2.69c-1.56,0-2.52-1.71-1.7-3.04l7.9-12.84
				c0.66-1.07,1.82-1.72,3.07-1.72h9.52C459.67,541.93,459.75,542.12,459.65,542.24z"/>
		</g>
	</g>
	<g>
		<path class="st2" d="M594.97,754.12h20.48v1.29h-19.06v12.5h17.24v1.29h-17.24v12.71h19.27v1.29h-20.68V754.12z"/>
		<path class="st2" d="M619.93,754.12h1.54l12.13,27.5l12.13-27.5h1.45l-13.04,29.28h-1.16L619.93,754.12z"/>
		<path class="st2" d="M653.15,754.12h20.48v1.29h-19.06v12.5h17.24v1.29h-17.24v12.71h19.27v1.29h-20.68V754.12z"/>
		<path class="st2" d="M680.77,754.12h1.29l21.27,26.67v-26.67h1.37v29.07h-1.12l-21.43-26.87v26.87h-1.37V754.12z"/>
		<path class="st2" d="M720.93,755.41h-10.34v-1.29h22.14v1.29h-10.38v27.79h-1.41V755.41z"/>
		<path class="st2" d="M735.01,768.7v-0.08c0-7.93,5.73-14.99,14.54-14.99c8.8,0,14.5,7.06,14.5,14.99c0.04,0,0.04,0.04,0,0.08
			c0,7.93-5.73,14.99-14.54,14.99C740.7,783.69,735.01,776.63,735.01,768.7z M762.58,768.74v-0.08c0-7.35-5.36-13.75-13.08-13.75
			c-7.77,0-13.04,6.31-13.04,13.67v0.08c0,7.35,5.36,13.75,13.12,13.75C757.31,782.4,762.58,776.09,762.58,768.74z"/>
		<path class="st2" d="M769.31,778.96l0.96-1.04c3.07,2.91,6.48,4.4,10.72,4.4c5.03,0,8.31-2.74,8.31-6.4v-0.08
			c0-3.41-1.95-5.23-8.97-6.69c-7.1-1.41-9.88-3.65-9.88-7.85v-0.08c0-4.15,3.95-7.52,9.43-7.52c3.99,0,7.14,1.25,9.89,3.41
			l-0.87,1.12c-2.66-2.12-5.69-3.24-9.1-3.24c-4.78,0-7.93,2.87-7.93,6.11v0.08c0,3.36,1.95,5.23,9.01,6.69
			c7.23,1.45,9.84,3.78,9.84,7.85v0.08c0,4.49-3.86,7.81-9.8,7.81C776.37,783.61,772.59,781.99,769.31,778.96z"/>
		<path class="st2" d="M809.76,754.12h20.48v1.29h-19.06v12.5h17.24v1.29h-17.24v12.71h19.27v1.29h-20.68V754.12z"/>
		<path class="st2" d="M835.42,778.96l0.96-1.04c3.07,2.91,6.48,4.4,10.72,4.4c5.03,0,8.31-2.74,8.31-6.4v-0.08
			c0-3.41-1.95-5.23-8.97-6.69c-7.1-1.41-9.88-3.65-9.88-7.85v-0.08c0-4.15,3.95-7.52,9.43-7.52c3.99,0,7.14,1.25,9.89,3.41
			l-0.87,1.12c-2.66-2.12-5.69-3.24-9.1-3.24c-4.78,0-7.93,2.87-7.93,6.11v0.08c0,3.36,1.95,5.23,9.01,6.69
			c7.23,1.45,9.84,3.78,9.84,7.85v0.08c0,4.49-3.86,7.81-9.8,7.81C842.48,783.61,838.7,781.99,835.42,778.96z"/>
		<path class="st2" d="M863.87,754.12h10.38c6.81,0,11.01,3.28,11.01,8.81v0.08c0,5.81-4.69,9.01-11.34,9.01h-8.64v11.17h-1.41
			V754.12z M873.96,770.69c6.02,0,9.88-2.82,9.88-7.64v-0.08c0-4.78-3.74-7.56-9.72-7.56h-8.85v15.28H873.96z"/>
		<path class="st2" d="M891.65,754.12h20.48v1.29h-19.06v12.5h17.24v1.29h-17.24v12.71h19.27v1.29h-20.68V754.12z"/>
		<path class="st2" d="M917.48,768.74v-0.08c0-8.18,6.06-15.04,14.37-15.04c5.4,0,8.35,1.99,11.17,4.61l-1,1.04
			c-2.41-2.33-5.36-4.36-10.22-4.36c-7.39,0-12.88,6.19-12.88,13.71v0.08c0,7.52,5.57,13.71,12.92,13.71
			c4.53,0,7.77-1.99,10.34-4.65l1,0.96c-2.74,2.78-6.27,4.98-11.42,4.98C923.54,783.69,917.48,777,917.48,768.74z"/>
		<path class="st2" d="M949.42,754.12h1.41v29.07h-1.41V754.12z"/>
		<path class="st2" d="M970.89,753.91h1.33l13.79,29.28h-1.54l-3.95-8.47h-17.98l-3.99,8.47h-1.45L970.89,753.91z M979.9,773.43
			l-8.39-17.86l-8.35,17.86H979.9z"/>
		<path class="st2" d="M991.98,754.12h1.41v27.79h17.53v1.29h-18.94V754.12z"/>
		<path class="st2" d="M1016.82,754.12h20.48v1.29h-19.06v12.5h17.24v1.29h-17.24v12.71h19.27v1.29h-20.68V754.12z"/>
		<path class="st2" d="M1042.48,778.96l0.96-1.04c3.07,2.91,6.48,4.4,10.72,4.4c5.03,0,8.31-2.74,8.31-6.4v-0.08
			c0-3.41-1.95-5.23-8.97-6.69c-7.1-1.41-9.88-3.65-9.88-7.85v-0.08c0-4.15,3.95-7.52,9.43-7.52c3.99,0,7.14,1.25,9.89,3.41
			l-0.87,1.12c-2.66-2.12-5.69-3.24-9.1-3.24c-4.78,0-7.93,2.87-7.93,6.11v0.08c0,3.36,1.95,5.23,9.01,6.69
			c7.23,1.45,9.84,3.78,9.84,7.85v0.08c0,4.49-3.86,7.81-9.8,7.81C1049.54,783.61,1045.76,781.99,1042.48,778.96z"/>
	</g>
	<path id="SVGID_x5F_1_x5F_" class="st3" d="M598.46,580.79c0,0,149.85-30.8,297.17,87.58c61.2,38.31,122.11,40.51,159.36,12.65"/>
	<text>	<textPath  xlink:href="#SVGID_x5F_1_x5F_" startOffset="8.2275%">
<tspan  class="st2" style="font-family:'Get-Show'; font-size:121.7301px;">Renta sillas</tspan>	</textPath>
</text>
	<path class="st2" d="M282.68,584.67c-2.66,6.69-5.61,13.29-7.93,20.1c-7.83,22.96-15.44,46-23.16,68.99
		c-0.91,2.71-1.79,5.5-3.16,7.99c-5.3,9.67-15.98,10.16-20.93,0.37c-3.69-7.31-6.87-15.41-7.87-23.45
		c-3.77-30.04-7.24-60.16-9.41-90.35c-1.16-16.12,7.71-24.18,23.46-25.47c7.24-0.59,10.27,1.12,9.3,9.47
		c-4.05,35.02-3.65,70.04,3.22,105.6c1.11-2.92,2.29-5.82,3.33-8.76c9.14-25.88,18.19-51.79,27.43-77.63
		c1.71-4.79,3.15-10.27,6.48-13.74c3.8-3.96,9.65-8.38,14.45-8.21c4.32,0.16,10.31,5.46,12.21,9.92c3.04,7.15,3.51,15.44,4.7,23.3
		c3.39,22.4,6.53,44.84,9.96,67.23c0.61,3.97,2.14,7.8,3.24,11.69c0.87,0.07,1.73,0.13,2.6,0.2c3.21-12.37,6.64-24.7,9.59-37.13
		c7.88-33.24,14.78-66.73,23.64-99.71c4.18-15.55,11.51-30.33,18.26-45.08c3.27-7.14,9.03-13.05,18.17-10.89
		c9.23,2.19,12.47,9.76,12.71,18.18c0.77,27.77,0.95,55.56,1.56,83.34c0.5,22.67,1.25,45.33,1.98,68
		c0.38,11.88,4.12,22.55,12.17,31.49c6.18,6.86,13.29,8.72,21.29,3.35c11.39-7.65,23.33-14.69,33.84-23.42
		c57.07-47.39,123.27-61.34,195.52-55.83c67.29,5.14,125.12,32.56,179.28,70.98c22.53,15.98,47.05,29.48,71.72,42.02
		c37.07,18.85,75.61,18.65,114.28,3.94c6.85-2.61,13.84-4.85,20.77-7.22c0.14-0.05,0.43,0.37,1.26,1.13
		c-40.37,21.9-82.35,30.04-125.16,11.44c-27.91-12.12-54.79-27.55-80.08-44.56c-44.91-30.2-91.04-57.15-144.8-67.51
		c-67.13-12.94-132.68-10.21-192.33,27.65c-20.1,12.76-37.99,29.07-56.53,44.2c-11.4,9.31-23.26,16.81-38.57,17.04
		c-11.27,0.18-20.53-3.65-27.56-12.68c-9.51-12.2-15.47-25.91-15.63-41.4c-0.39-36.71-0.15-73.42-0.32-110.13
		c-0.04-8.04-0.7-16.09-1.07-24.13c-1.03-0.12-2.07-0.24-3.1-0.37c-3.77,14.34-7.49,28.68-11.3,43.01
		c-10.74,40.4-21.39,80.82-32.39,121.15c-1.57,5.75-4.12,11.56-7.53,16.42c-7.32,10.44-19.64,9.95-24-1.91
		c-6.67-18.15-11.77-36.99-16.01-55.89c-3.11-13.85-3.76-28.25-5.51-42.41C284.07,584.9,283.37,584.78,282.68,584.67z"/>
</g>
</svg>
