<?xml version="1.0" encoding="utf-8"?>
<!-- Generator: Adobe Illustrator 26.3.1, SVG Export Plug-In . SVG Version: 6.00 Build 0)  -->
<svg version="1.1" id="Layer_1" xmlns="http://www.w3.org/2000/svg" xmlns:xlink="http://www.w3.org/1999/xlink" x="0px" y="0px"
	 viewBox="0 0 1200 1200" style="enable-background:new 0 0 1200 1200;" xml:space="preserve">
<style type="text/css">
	.st0{fill:#333333;}
	.st1{fill:#ECECEA;}
	.st2{fill:#EC313A;}
</style>
<g>
	<path class="st0" d="M201.38,504.91c39.56-67.76,117.54-106.03,195.4-94.74c78.51,11.38,143.45,71.77,160.84,149.07
		c9.23,41.04,4.91,84.56-13.32,122.57c-17.02,35.49-44.7,65.37-78.96,84.79c-68.42,38.79-155.58,31.73-216.9-17.53
		c-63.3-50.85-89.61-141-59.96-217.27C192.08,522.52,196.44,513.56,201.38,504.91c0.54-0.94,0.34-2.3,0.87-3.23
		c-38.1,66.73-35.18,151.65,10.46,214.14c49.61,67.92,140.31,96.08,219.68,68.51C506,758.76,557.3,689.51,562.74,612.12
		c5.88-83.52-44.42-163.12-122.31-193.8c-77.03-30.34-167.75-6.77-220.19,57.32c-6.7,8.19-12.66,16.91-18,26.05
		C201.7,502.62,201.91,503.99,201.38,504.91z"/>
</g>
<g>
	<path class="st0" d="M164.76,489.37c47.9-82.2,142.74-128.56,237.09-114.64c95.51,14.1,174.22,87.98,194.63,182.25
		c4.87,22.5,6.42,45.7,4.55,68.65c-1.01,12.42-2.73,25.15-6.1,37.17c0.86-3.06-0.06-0.05-0.24,0.46c-0.61,1.72-1.11,3.49-1.69,5.22
		c-0.95,2.83-1.97,5.63-3.03,8.42c-2.32,6.07-4.9,12.04-7.71,17.9c-20.68,43.02-54.34,79.2-95.93,102.65
		c-83.74,47.23-190.41,37.76-264.56-23.44c-35.94-29.67-62.4-70.04-75.47-114.76c-6.44-22.05-9.64-45.03-9.44-68
		c0.1-11.3,1.02-22.59,2.76-33.75c1.06-6.79,2.25-13.68,4.11-20.3c-0.9,3.2,1.01-2.87,1.36-3.94c1.31-4,2.74-7.96,4.27-11.87
		C153.68,510.34,158.87,499.67,164.76,489.37c2.15-3.76,1.37-9.19,3.5-12.91c-22.94,40.09-35.85,88.56-34.86,134.81
		c1.04,48.46,17.35,96.15,46.26,135.06c60.44,81.35,169.84,114.58,265.37,81.15c46.58-16.3,87.29-47.34,115.29-87.98
		c26.46-38.39,42.09-86.45,44.63-132.99c5.5-100.73-56.28-195.86-150.53-231.84c-93.17-35.57-202.11-6.47-264.98,71
		c-7.87,9.69-14.9,20.01-21.18,30.79C166.08,480.2,166.92,485.68,164.76,489.37z"/>
</g>
<g>
	<g>
		<path class="st0" d="M445.11,574.83c-4.86,14.68-1.94,20.95,4.1,22.35c10.37,2.27,30.34-10.04,38.11-19.33
			c2.92-4.1,7.88-2.05,3.45,2.7c-9.61,11.34-27.75,22.78-43.62,21.05c-13.06-1.19-17.6-17.28-11.66-28.94
			C440.68,567.81,446.62,570.08,445.11,574.83z"/>
		<path class="st0" d="M487.32,600.2c-3.46-1.73-4.32-6.48-3.78-10.9c2.05-17.71,19.97-31.74,38.01-29.15
			c5.51,0.76,10.58,3.24,13.06,8.42c2.27,4.86-3.89,6.05-5.94,0.86c-2.05-3.78-5.18-5.61-8.64-5.94
			c-8.85-0.86-19.22,9.29-23.21,19.11c-0.86,1.94-3.02,7.67-1.51,9.72c1.73,2.59,19.87-17.49,22.03-19.65
			c5.18-4.86,11.12-2.59,9.61,2.16c-4.86,14.68-1.94,20.95,4.1,22.35c10.36,2.27,30.34-10.04,38.11-19.33
			c2.91-4.1,7.88-2.05,3.45,2.7c-9.61,11.34-27.75,22.78-43.62,21.05c-12.96-1.19-17.38-12.42-11.34-24.19
			C513.02,581.2,498.98,606.25,487.32,600.2z"/>
	</g>
	<g>
		<path class="st0" d="M459.65,542.24l-13.78,16.15c-0.61,0.72-1.51,1.14-2.46,1.14h-2.69c-1.56,0-2.52-1.71-1.7-3.04l7.9-12.84
			c0.66-1.07,1.82-1.72,3.07-1.72h9.52C459.67,541.93,459.75,542.12,459.65,542.24z"/>
	</g>
</g>
<path class="st2" d="M282.68,584.67c-2.66,6.69-5.61,13.29-7.93,20.1c-7.83,22.96-15.44,46-23.16,68.99
	c-0.91,2.71-1.79,5.5-3.16,7.99c-5.3,9.67-15.98,10.16-20.93,0.37c-3.69-7.31-6.87-15.41-7.87-23.45
	c-3.77-30.04-7.24-60.16-9.41-90.35c-1.16-16.12,7.71-24.18,23.46-25.47c7.24-0.59,10.27,1.12,9.3,9.47
	c-4.05,35.02-3.65,70.04,3.22,105.6c1.11-2.92,2.29-5.82,3.33-8.76c9.14-25.88,18.19-51.79,27.43-77.63
	c1.71-4.79,3.15-10.27,6.48-13.74c3.8-3.96,9.65-8.38,14.45-8.21c4.32,0.16,10.31,5.46,12.21,9.92c3.04,7.15,3.51,15.44,4.7,23.3
	c3.39,22.4,6.53,44.84,9.96,67.23c0.61,3.97,2.14,7.8,3.24,11.69c0.87,0.07,1.73,0.13,2.6,0.2c3.21-12.37,6.64-24.7,9.59-37.13
	c7.88-33.24,14.78-66.73,23.64-99.71c4.18-15.55,11.51-30.33,18.26-45.08c3.27-7.14,9.03-13.05,18.17-10.89
	c9.23,2.19,12.47,9.76,12.71,18.18c0.77,27.77,0.95,55.56,1.56,83.34c0.5,22.67,1.25,45.33,1.98,68
	c0.38,11.88,4.12,22.55,12.17,31.49c6.18,6.86,13.29,8.72,21.29,3.35c11.39-7.65,23.33-14.69,33.84-23.42
	c57.07-47.39,123.27-61.34,195.52-55.83c67.29,5.14,125.12,32.56,179.28,70.98c22.53,15.98,47.05,29.48,71.72,42.02
	c37.07,18.85,75.61,18.65,114.28,3.94c6.85-2.61,13.84-4.85,20.77-7.22c0.14-0.05,0.43,0.37,1.26,1.13
	c-40.37,21.9-82.35,30.04-125.16,11.44c-27.91-12.12-54.79-27.55-80.08-44.56c-44.91-30.2-91.04-57.15-144.8-67.51
	c-67.13-12.94-132.68-10.21-192.33,27.65c-20.1,12.76-37.99,29.07-56.53,44.2c-11.4,9.31-23.26,16.81-38.57,17.04
	c-11.27,0.18-20.53-3.65-27.56-12.68c-9.51-12.2-15.47-25.91-15.63-41.4c-0.39-36.71-0.15-73.42-0.32-110.13
	c-0.04-8.04-0.7-16.09-1.07-24.13c-1.03-0.12-2.07-0.24-3.1-0.37c-3.77,14.34-7.49,28.68-11.3,43.01
	c-10.74,40.4-21.39,80.82-32.39,121.15c-1.57,5.75-4.12,11.56-7.53,16.42c-7.32,10.44-19.64,9.95-24-1.91
	c-6.67-18.15-11.77-36.99-16.01-55.89c-3.11-13.85-3.76-28.25-5.51-42.41C284.07,584.9,283.37,584.78,282.68,584.67z"/>
</svg>
